<?xml version="1.0" standalone="no"?>
<!DOCTYPE svg PUBLIC "-//W3C//DTD SVG 20010904//EN"
        "http://www.w3.org/TR/2001/REC-SVG-20010904/DTD/svg10.dtd">
<svg version="1.0" xmlns="http://www.w3.org/2000/svg"
     width="86.000000pt" height="86.000000pt" viewBox="0 0 86.000000 86.000000"
     preserveAspectRatio="xMidYMid meet">
    <metadata>
        Created by potrace 1.11, written by Peter Selinger 2001-2013
    </metadata>
    <g transform="translate(0.000000,86.000000) scale(0.100000,-0.100000)"
       fill="#000000" stroke="none">
        <path d="M260 620 c0 -17 8 -19 68 -22 l69 -3 -86 -232 c-84 -229 -86 -233
-114 -233 -22 0 -28 -4 -25 -17 3 -16 16 -18 98 -18 78 0 95 3 95 15 0 11 -13
16 -48 18 -53 3 -52 -2 -18 87 l19 50 132 0 132 0 18 -45 c36 -93 37 -89 -17
-92 -35 -2 -48 -7 -48 -18 0 -12 19 -16 98 -18 91 -3 97 -1 97 17 0 14 -8 21
-27 23 -27 3 -32 15 -123 255 l-95 253 -112 0 c-106 0 -113 -1 -113 -20z m248
-158 c29 -77 52 -142 52 -145 0 -10 -220 -9 -220 1 0 16 103 282 110 282 4 0
30 -62 58 -138z"/>
    </g>
</svg>
